<?xml version="1.0" encoding="UTF-8"?>
<svg id="Layer_1" data-name="Layer 1" xmlns="http://www.w3.org/2000/svg" xmlns:xlink="http://www.w3.org/1999/xlink" viewBox="0 0 1080 1080">
  <defs>
    <style>
      .cls-1 {
        fill: url(#linear-gradient);
        stroke-width: 0px;
      }
    </style>
    <linearGradient id="linear-gradient" x1="215.62" y1="1091.92" x2="735.81" y2="190.93" gradientUnits="userSpaceOnUse">
      <stop offset="0" stop-color="#ff6ec4"/>
      <stop offset="1" stop-color="#7873f5"/>
    </linearGradient>
  </defs>
  <path class="cls-1" d="m1080,445.11c-1.02,6.05-2.65,12.86-4.92,20.42s-5.29,14.5-9.08,20.8c-3.78,6.31-8.45,11.6-13.99,15.88-5.55,4.29-12.1,6.43-19.66,6.43-5.55,0-11.1-.63-16.64-1.89-5.55-1.25-11.34-1.89-17.39-1.89-2.53,0-5.18.89-7.94,2.65-2.78,1.77-5.42,2.65-7.94,2.65s-4.67-.38-6.43-1.13c-1.77-.76-3.91-1.13-6.43-1.13-1.51,0-4.29.51-8.32,1.51-4.04,1.02-8.32,2.02-12.86,3.03-4.54,1.02-8.83,2.15-12.86,3.4-4.04,1.26-6.81,2.15-8.32,2.65-13.61,4.54-27.23,8.58-40.84,12.1-13.61,3.53-27.74,5.8-42.35,6.81-3.03-1-7.56-2.14-13.61-3.4-6.05-1.25-10.59-1.89-13.61-1.89-6.05,0-9.96,2.53-11.72,7.56-1.77,5.05-5.18,8.83-10.21,11.34-6.05,3.53-13.61,5.55-22.69,6.05-9.08.51-18.15,1.26-27.23,2.27-9.08,1.02-17.53,2.91-25.34,5.67-7.82,2.78-13.5,7.94-17.02,15.5-2.53-.5-5.18-.87-7.94-1.13-2.78-.25-5.67-.38-8.7-.38-16.14,0-31.27,3.16-45.38,9.45-14.12,6.31-28.49,11.98-43.11,17.02,2.52,4.54,4.28,10.09,5.29,16.64,1,6.56,2.01,12.99,3.03,19.29,1,6.31,2.39,12.36,4.16,18.15,1.76,5.8,4.92,10.21,9.45,13.24,0,3.03-.64,5.55-1.89,7.56-1.26,2.02-2.65,3.78-4.16,5.29l-5.29,5.29c-1.51,1.51-2.53,3.78-3.03,6.81-1.51,6.05-2.27,12.23-2.27,18.53s-3.53,10.97-10.59,13.99c.5,1.51.76,4.29.76,8.32,0,5.05-.76,9.83-2.27,14.37-1.51,4.54-2.02,9.58-1.51,15.13-8.58,9.58-15.76,19.42-21.55,29.5-5.8,10.08-10.21,20.92-13.24,32.52-18.66,18.65-37.7,37.44-57.1,56.34-19.42,18.91-39.33,37.18-59.75,54.83-20.42,17.64-41.48,34.41-63.15,50.29-21.68,15.88-44.13,29.87-67.31,41.97h-5.29c-11.6,0-20.68,2.01-27.23,6.05-6.56,4.03-14.88,7.56-24.96,10.59-7.56-2.02-16.64-3.03-27.23-3.03-6.05,0-12.23.25-18.53.76-6.31.5-12.74.76-19.29.76-8.58,0-16.26-1.02-23.07-3.03-6.81-2.02-13.37-4.29-19.66-6.81-6.31-2.53-12.74-5.05-19.29-7.56-6.56-2.53-13.61-4.29-21.18-5.29-31.27-31.27-55.97-67.69-74.12-109.29C9.08,875.07,0,832.34,0,788.47,0,768.31,2.77,748.52,8.32,729.1c5.54-19.4,8.32-38.95,8.32-58.61,9.08-18.15,17.02-36.8,23.82-55.97,6.81-19.16,13.73-38.31,20.8-57.48,7.05-19.16,14.75-37.93,23.07-56.34,8.32-18.4,18.27-35.92,29.87-52.56,2.52-13.11,6.55-24.45,12.1-34.03,5.54-9.57,11.59-20.16,18.15-31.76,0-11.08,2.39-21.29,7.18-30.63,4.79-9.32,7.68-19.78,8.7-31.39,8.06-7.56,14.62-16.13,19.66-25.71,5.03-9.57,9.83-19.4,14.37-29.5,4.54-10.08,9.7-19.78,15.5-29.12,5.79-9.32,13.73-17.26,23.82-23.82,1-3.52,1.63-7.43,1.89-11.72.25-4.28,1.38-7.68,3.4-10.21l15.88-17.39c5.03-6.55,9.7-13.24,13.99-20.04,4.28-6.81,8.95-12.98,13.99-18.53,3.03-3.03,6.3-5.54,9.83-7.56,3.52-2.01,6.55-4.28,9.08-6.81s3.4-5.79,2.65-9.83c-.76-4.03.12-7.3,2.65-9.83,1-1,2.52-2.01,4.54-3.03,2.01-1,3.78-2.01,5.29-3.03,6.55-4.54,12.1-9.08,16.64-13.61s10.84-7.81,18.91-9.83c7.05-5.54,13.48-11.08,19.29-16.64,5.79-5.54,11.72-10.59,17.77-15.13,6.05-4.54,12.6-8.19,19.66-10.97,7.05-2.77,15.88-4.16,26.47-4.16,2.01,0,4.03.13,6.05.38,2.01.26,4.03.38,6.05.38,20.67,19.17,33.53,42.61,38.57,70.34-5.55,7.07-9.96,14.63-13.24,22.69-3.29,8.07-6.94,16.14-10.97,24.2-8.58,3.03-16.64,7.45-24.2,13.24-7.56,5.8-15.01,11.72-22.31,17.77-7.31,6.05-14.88,11.34-22.69,15.88-7.82,4.54-16.52,6.81-26.09,6.81-4.04,3.53-10.47,9.21-19.29,17.02-8.83,7.82-17.9,16.01-27.23,24.58-9.34,8.58-17.9,16.64-25.71,24.2-7.82,7.56-12.74,12.86-14.75,15.88-1.51,2.53-2.78,4.8-3.78,6.81-1.02,2.02-2.02,4.29-3.03,6.81l-19.66,33.28c-11.1,19.17-22.44,37.95-34.03,56.34-11.6,18.41-21.68,37.7-30.25,57.86-4.04,9.08-7.31,18.15-9.83,27.23-2.53,9.08-5.05,18.66-7.56,28.74-1.02,3.03-2.27,6.05-3.78,9.08s-2.78,5.8-3.78,8.32c-5.55,10.59-10.09,20.42-13.61,29.5-3.53,9.08-5.55,19.66-6.05,31.76-12.61,28.24-24.33,56.6-35.17,85.08-10.85,28.49-19.04,57.86-24.58,88.11,3.03,10.09,4.41,20.3,4.16,30.63-.26,10.34-.38,20.55-.38,30.63,0,12.6.87,23.07,2.65,31.39,1.76,8.32,4.28,15.88,7.56,22.69,3.27,6.81,6.92,13.86,10.97,21.18,4.03,7.3,8.32,16,12.86,26.09,7.56,6.05,14.37,12.48,20.42,19.29,6.05,6.81,11.84,14.24,17.39,22.31,19.16,9.57,38.57,14.37,58.24,14.37,14.11,0,28.48-2.27,43.11-6.81,14.62-4.54,28.86-10.21,42.73-17.02,13.86-6.81,27.34-14.25,40.46-22.31,13.11-8.07,25.71-15.88,37.82-23.45,21.18-12.61,39.58-26.22,55.21-40.84,15.62-14.63,29.87-30,42.73-46.13,12.86-16.13,24.83-33.4,35.92-51.81,11.08-18.4,22.69-37.93,34.79-58.61.5-2.52,1.51-5.54,3.03-9.08l4.54-11.34c1.51-4.03,2.9-7.68,4.16-10.97,1.25-3.27,1.89-5.41,1.89-6.43,0-4.03-.89-6.92-2.65-8.7-1.77-1.76-2.65-3.65-2.65-5.67,0-4.03,1-6.81,3.03-8.32,2.01-1.51,4.41-3.03,7.18-4.54,2.77-1.51,5.29-3.27,7.56-5.29,2.27-2.01,3.4-5.79,3.4-11.34-1.02-.5-2.78-.76-5.29-.76s-5.05.26-7.56.76c-2.53.51-5.05.76-7.56.76-6.05,0-11.1-2.01-15.13-6.05-2.53,1.02-5.05,2.65-7.56,4.92-2.53,2.27-4.92,4.67-7.18,7.18-2.27,2.53-4.42,4.8-6.43,6.81s-3.78,3.03-5.29,3.03c-2.53,0-4.42-.5-5.67-1.51-1.26-1-2.91-1.51-4.92-1.51-8.58,0-16.14,2.02-22.69,6.05-6.56,4.04-13.61,7.31-21.18,9.83-1.51,0-3.03-.12-4.54-.38-1.51-.25-3.03-.38-4.54-.38-5.55,0-10.97.89-16.26,2.65-5.29,1.77-10.34,3.66-15.13,5.67-4.8,2.02-9.71,3.78-14.75,5.29-5.05,1.51-10.09,2.02-15.13,1.51-11.1,4.04-21.31,8.32-30.63,12.86-9.34,4.54-20.04,6.31-32.14,5.29-3.53,1.51-7.18,3.16-10.97,4.92-3.78,1.77-7.45,3.91-10.97,6.43-3.03,1.02-5.29,1.51-6.81,1.51-2.53,0-4.54-1.25-6.05-3.78-4.04,4.54-9.34,7.69-15.88,9.45-6.56,1.77-13.37,3.29-20.42,4.54-7.07,1.26-13.74,2.78-20.04,4.54-6.31,1.77-11.23,5.18-14.75,10.21-5.55-4.54-12.1-6.81-19.66-6.81s-14.88,1.39-21.93,4.16c-7.07,2.78-14.63,4.16-22.69,4.16-3.03,0-5.05-.5-6.05-1.51-2.02-5.54-4.29-11.08-6.81-16.64-2.53-5.54-6.56-9.57-12.1-12.1-1.02-5.54-1.89-10.97-2.65-16.26s-1.13-10.46-1.13-15.5c0-13.61,4.03-25.96,12.1-37.06,7.05-2.52,14.24-4.66,21.55-6.43,7.3-1.76,14.49-3.9,21.55-6.43,5.54,1.02,11.08,1.77,16.64,2.27,5.54.51,11.08.76,16.64.76,20.67,0,40.84-2.65,60.5-7.94s39.07-10.97,58.24-17.02c18.15-5.54,36.55-10.59,55.21-15.13,18.65-4.54,37.31-9.57,55.97-15.13,17.64-4.54,35.04-9.7,52.18-15.5,17.13-5.79,35.04-9.45,53.7-10.97,12.1-8.57,26.85-14.37,44.24-17.39,17.39-3.03,33.4-6.3,48.03-9.83,23.19-5.54,46.13-11.21,68.82-17.02,22.69-5.79,45.87-10.97,69.58-15.5,26.21-5.54,51.81-12.35,76.76-20.42,24.96-8.06,50.03-16.64,75.25-25.71h7.56c8.57,0,17.39-1,26.47-3.03,9.08-2.01,18.15-3.03,27.23-3.03,2.52,0,4.66.13,6.43.38,1.76.26,3.65.38,5.67.38,1.51,0,5.29-1.13,11.34-3.4s10.33-3.9,12.86-4.92c6.55,7.07,13.86,13.37,21.93,18.91,8.06,5.55,15.13,11.85,21.18,18.91Z"/>
</svg>