<?xml version="1.0" encoding="UTF-8"?>
<svg id="Layer_1" data-name="Layer 1" xmlns="http://www.w3.org/2000/svg" viewBox="0 0 1920 1080">
  <defs>
    <style>
      .cls-1 {
        fill: #fff;
        stroke: #fff;
        stroke-miterlimit: 10;
        stroke-width: 7px;
      }
    </style>
  </defs>
  <path class="cls-1" d="m1902.54-13.69c-104.83,15.32-208.99,33.09-312.34,53.83-4.94.99-9.02,2.35-12.4,5.56-57,54.22-107.11,112.25-151.28,173.56-.36.5-.41,1.13-1.03,2.93,156.64-34.33,315.39-53.69,477.05-57.39v3.61c-103.09,2.2-205.26,11.28-306.65,26.15-55.23,8.1-109.83,18.37-164.07,29.92-7.83,1.67-12.86,4.61-16.88,10.42-23.68,34.16-45.68,68.98-66.75,104.21-3.77,6.3-2.42,9.98,3.51,14.7,8.24,6.55,17.18,10.75,28.59,13.31,169.47,38.01,341.14,68.21,514.38,92.98,2.57.37,5.24.28,7.87.4v3.61c-3.36-.22-6.77-.22-10.08-.69-171.7-24.43-341.78-54.52-509.72-92.11-2.3-.52-4.5-1.28-8.01-.04,7.19,5.31,13.43,10.04,19.83,14.62,115.75,82.96,246.97,146.16,390.38,193.75,38.54,12.79,77.35,25.04,117.6,34.11v3.61c-24.64-4.54-48-12.16-71.53-19.27-173.22-52.36-330-126-464.65-228.17-7.66-5.81-17.77-6.19-27.01-8.25-5.61-1.25-5.78,3.93-7.27,6.62-27.81,50.27-52.22,101.59-73.83,153.75-35.82,86.45-63.15,174.62-84.52,264.02-2.01,8.43,2.42,9.99,10.77,11.71,166.85,34.36,335.55,61.38,506.04,81.46,67.14,7.91,134.45,14.61,201.85,20.84,3.36.31,6.77.25,10.16.37v3.61c-43.59-2.85-86.9-7.62-130.25-12.09-107.67-11.1-214.7-25.26-321.2-42.01-90.56-14.24-180.52-30.62-269.77-49.37-9.2-1.93-11,.4-12.14,6.51-5.07,27.01-10.21,54-15.77,80.95-1.56,7.54.72,12.48,8.46,17.66,91,60.84,191.58,107.18,307.7,130.34,1.01.2,1.85.94,2.78,1.43h-18.11c-.91-.5-1.73-1.24-2.74-1.46-110.08-24.5-206.05-69.43-292.74-127.89-2.11-1.42-3.78-3.91-7.88-3.06-6.79,43.98-12.97,88.07-15.89,132.42h-4.53c2.69-42.01,8.24-83.82,15-125.52,1.32-8.15-.29-13.61-8.49-19.43-55.14-39.09-103.84-82.93-147.93-130.02-4.72-5.04-10.04-8.19-17.7-10.11-124.05-31.15-245.9-67.04-364.98-108.75-7.88-2.76-11.62-1.53-16.55,3.43-48.1,48.4-90.67,99.65-127.15,154.14-4.66,6.97-4.2,10.03,5.06,14.1,133.92,58.82,255.66,130.64,363.16,217.48,1.84,1.49,3.5,3.12,5.25,4.68h-6.79c-1.94-1.8-3.75-3.71-5.85-5.39-106.95-85.82-228.03-156.62-360.67-215.17-6.99-3.08-9.13-1.58-12.22,3.39-30.68,49.29-55.76,100.29-74.12,153.32-7.28,21.04-15.37,41.97-18.09,63.85h-4.53c2.25-21.04,10.09-41.12,16.98-61.32,18.42-54,43.52-106.03,75.11-156.02,4.13-6.54,3.21-9.29-5.1-12.79-114.65-48.28-234.35-86.47-358.89-115.19-7.89-1.82-10.65-1.39-11.89,5.99-11.71,69.63-22.18,139.38-31.06,209.27-4.25,33.46-7.92,66.96-12.41,100.4-.76,5.67.94,8.62,6.99,11.49,12.49,5.94,26.1,10.47,37.25,18.16h-9.06c-10.49-7.18-23.31-11.2-35.95-17.85-.97,6.8-1.75,12.33-2.54,17.85h-4.53c.67-5.03,1.34-10.07,2.01-15.1.37-2.78.19-5.25-3.53-6.83-11.77-5.02-22.07-12.08-34.7-15.93v-5.41c12.44,6.12,24.87,12.24,38.14,18.77.86-3.36,1.72-5.64,2-7.97,4.05-33.48,7.77-66.98,12.06-100.44,8.16-63.63,17.37-127.16,28.29-190.52,4.38-25.4,4.85-24.96-26.54-31.98-10.16-2.27-14.14-.6-17.98,7.22-13.15,26.8-23.78,54.29-35.97,81.34,0-4.21,0-8.41,0-12.62,11.48-25,22.9-50.02,34.54-74.98,1.31-2.8,1.53-4.63-2.62-5.21-10.64-1.49-20.66-5.79-31.92-4.55v-5.41c23.22-12.83,43.56-28.48,65.66-42.41,1.64-1.03,2.38-3.01,3.42-4.59,12.19-18.61,24.34-37.23,36.56-55.83,1.77-2.69,2.78-5.46,3.42-8.48,8.67-40.8,17.51-81.58,26.26-122.37.68-3.19,1.71-6.24-2.72-8.83-27.29-15.94-54.41-32.06-82.16-48.47-.92,2.65-1.98,4.85-2.43,7.13-7.91,40-17.19,79.8-27.79,119.4-6.17,23.06-10.8,46.43-20.23,68.9,0-5.41,0-10.82,0-16.23.71-.99,1.78-1.92,2.09-2.98,16.6-57.79,30.41-116,42.77-174.45.87-4.1-.69-6.6-4.7-9.13-13.55-8.56-26.79-17.44-40.15-26.19,0-1.2,0-2.4,0-3.61,16.78,7.73,29.09,20.28,46.76,28.36,13.46-67.97,24.13-135.23,31.89-203.42-4.76,1.99-5.83,5.07-7.61,7.58-21.36,30.01-42.53,60.1-63.86,90.12-2.16,3.05-3.12,6.77-7.19,8.85,0-2.4,0-4.81,0-7.21.92-.91,2.03-1.73,2.72-2.73,23.9-35.05,48.4-69.83,74.22-104,3.07-4.06,3.79-8.39,4.27-12.88,6.54-62.21,11.07-124.51,13.89-186.89h4.53c-2.85,61.43-7.12,122.81-12.65,184.24,2.32-1.26,3.64-2.63,4.76-4.1C120.15,77.68,169.12,19.41,221.35-37.11c1.51-1.63,3.8-3.01,3.45-5.42,2.26,0,4.53,0,6.79,0-1.89,2.23-3.69,4.51-5.69,6.67-54.63,58.97-105.55,119.91-153.29,182.54-3.8,4.99-6,9.98-6.63,15.91-2.16,20.33-4.98,40.62-7.74,60.9-6.41,47.13-14.33,94.11-23.75,140.92-1.09,5.4.47,8.79,6.12,12.08,19.16,11.17,37.82,22.87,56.86,34.17,7.11,4.22,13.76,9.09,22.52,11.98.97-3.41,1.92-6.31,2.6-9.25C154.83,274.14,193.88,136.14,242.4-.14c5-14.05,12.01-27.72,14.11-42.4h6.79c-17.04,41.64-30.94,83.99-44.83,126.33-36.3,110.61-66.37,222.33-92.75,334.69-1.26,5.38-.21,8.88,5.98,11.99,12.42,6.25,24.57,12.88,36.31,19.91,6.23,3.73,9.4,3.32,14.07-1.83,50.27-55.35,106.19-106.9,166.56-155.4,75.3-60.5,156.59-115.44,242.64-165.97,3.27-1.92,6.44-3.94,10.39-6.36-35.29-16.39-69.2-32.6-102.42-49.71-63.4-32.64-124.38-67.9-182.01-106.78-3.1-2.09-6.97-3.64-8.66-6.88,2.26,0,4.53,0,6.79,0,.36.51.58,1.15,1.1,1.51,88.21,60.01,184.11,111.18,284.44,157.31,4.56,2.1,7.45,1.09,11.09-.99,13.14-7.53,26.31-15.04,39.74-22.24,4.37-2.34,5.81-4.73,4.94-8.89-8.82-42.01-14.14-84.37-19.79-126.7h4.53c5.9,42.99,10.95,86.06,20.58,129.58,4.85-2.48,8.34-4.19,11.74-6.01,44.67-23.92,90.08-46.92,136.84-68.15,41.47-18.83,83.44-36.97,125.19-55.42,3.02,0,6.04,0,9.06,0-22.4,9.75-44.82,19.49-67.21,29.26-70.45,30.75-139.02,63.93-205.79,99.51-6.95,3.71-9.5,7.25-7.82,13.82,3.59,14.11,6.43,28.34,9.33,42.55.86,4.22,3.26,6.9,8.12,8.93,63.77,26.59,128.79,51.11,194.66,74.2,4.57,1.6,8.41,1.36,12.8-.17,84.2-29.37,169.57-56.42,256.15-80.99,7.84-2.23,7.27-4.58,4.27-9.55-32.32-53.52-55.85-109.39-69.7-167.79-.76-3.2-.83-6.51-1.21-9.77,1.51,0,3.02,0,4.53,0,2.71,23.11,10.76,45.33,18.58,67.53,13.05,37.05,30.52,72.8,51.14,107.61,3.43,5.8,6.17,8,15,5.49,132.76-37.72,267.49-70.31,404.14-97.89,4.41-.89,8.34-2.1,11.54-5.11,29.04-27.3,60.29-52.95,92.81-77.63h6.79c-32.78,24.66-64.44,50.18-95.31,79.41,106.13-21.03,210.13-39.1,314.93-54.17v3.61Zm-740.36,806.93c8.16,1.55,6.32-3.72,7.01-6.67,33.84-144.74,84.71-285.39,159.11-420.38,2.8-5.08,2.24-6.96-4.74-8.59-59.67-13.85-118.88-28.86-177.61-45.07-5.05-1.39-9.16-1.18-13.91.62-117.18,44.56-226.99,98.47-328.19,163.39-5.27,3.38-6.34,6.09-3.63,11.22,44.89,84.9,98.85,165.81,164.05,242.04,13.77,16.1,29.04,27.26,53.48,30.53,11.42,1.53,22.32,5.37,33.55,7.92,36.94,8.39,73.93,16.67,110.9,25ZM267.53,500.32c2.36,1.41,3.21,2.02,4.17,2.48,102.01,49.08,207.98,92.06,316.67,130.89,6.57,2.35,9.28.21,12.92-3.3,54.96-52.9,115.82-101.12,182.21-144.89,6.3-4.15,7.33-7.38,4.22-13.44-28.16-55.02-52.06-111.21-71.73-168.52-2.55-7.43-5.33-8.46-14.17-4.92-117.92,47.14-232.95,98.34-344.21,154.85-29.82,15.15-59.25,30.79-90.09,46.86Zm-194.85,181.86c-1.76,4.61,4.08,5.08,9.25,6.27,126.03,28.92,247.23,67.42,362.89,116.77,6.42,2.74,9.07,2.27,12.49-2.99,36.35-55.91,79.71-108.2,129.21-157.26,4.74-4.7,4.95-6.6-2.66-9.28-107.96-38.08-212.83-80.94-313.94-129.56-4.91-2.36-8.37-2.33-13.13.29-56.19,30.89-111.3,62.95-165.14,96.39-3.16,1.96-5.1,4.06-5.68,7.31-4.22,23.47-8.63,46.92-13.29,72.06Zm637.98-392.84c-.65-2.06-.92-2.93-1.21-3.8-14.23-42.64-26.92-85.57-37.11-128.94-1-4.24-3.73-6.61-8.52-8.61-16.36-6.82-32.65-13.79-48.51-21.31-6.46-3.07-10.76-2.95-16.92.69-53.39,31.49-105.29,64.45-155.03,99.53-95.22,67.17-181.6,140.79-256.91,222.55-5.25,5.7-5.24,8.39,2.67,12.2,21.95,10.55,43.54,21.58,64.91,32.86,6.68,3.53,11.34,3.15,17.86-.39,88.55-48.06,179.94-92.46,273.62-133.89,51.74-22.88,104.14-44.78,157.13-65.79,3.23-1.28,8.72-1.45,8.03-5.1Zm418.86,19.61c-.98-.57-1.73-1.27-2.67-1.53-80.7-22.55-160.55-46.87-239.03-73.96-4.81-1.66-8.5-.76-12.76.74-50.33,17.69-100.13,36.28-149.71,55.24-6.73,2.57-8.32,5.2-6.23,11,20.5,57.15,44.11,113.44,71.61,168.71,3.41,6.86,5.62,7.9,13.32,2.95,97.51-62.73,203.36-114.96,316.16-158.38,3.17-1.22,7.19-1.64,9.32-4.76ZM1572.79,44.68c-2.68-.13-3.46-.32-4.14-.18-135.39,27.61-268.96,59.99-400.78,96.98-8.35,2.34-6.69,4.95-3.71,9.56,24.92,38.51,53.96,74.94,86.24,109.79,4.32,4.66,7.99,5.57,14.96,3.44,47.48-14.49,95.65-27.38,144.63-38.29,6.02-1.34,9.41-4.15,12.35-8.25,26.94-37.56,56.39-73.83,88.11-108.95,19.57-21.67,40.25-42.65,62.35-64.11Zm-597.36,705.53c-1.02-2.66-1.07-3.33-1.49-3.79-71.89-79.88-129.83-165.87-177.11-256.51-3.11-5.96-5.43-5.24-10.76-1.68-64.92,43.3-124.8,90.59-179.25,142.25-5.98,5.68-5.87,7.68,3.1,10.77,79.51,27.39,160.01,52.75,241.8,75.47,40.44,11.24,81.1,21.97,123.7,33.48Zm-84.58-520.23c.98.69,1.22.97,1.54,1.08,78.77,27.29,159.09,51.41,240.08,74.15,5.17,1.45,9.31.44,13.92-1.27,31.42-11.64,63.18-22.69,95.6-32.44,8.66-2.6,9.09-4.5,3.64-10.22-32.43-34.03-60.84-70.13-85-108.26-4.26-6.72-7.98-7.16-16.26-4.76-82.09,23.87-163.33,49.42-243.53,77.07-3.29,1.14-7.2,1.58-9.99,4.65Zm-212.61-75.72c-1.88,2.96-.77,5.34-.2,7.59,10.19,40.25,21.6,80.27,34.78,119.97,2.19,6.6,4.48,7.07,11.85,4.16,46.88-18.48,94.34-35.99,142.17-52.87,2.43-.86,6.18-.83,6.57-4.45-66.07-22.97-131.18-47.72-195.17-74.4Zm311.38,602.91c48.17,51.23,99.04,96.84,157.65,137.97,6.3-31.59,12.11-61.5,18.39-91.34.94-4.47.12-6.52-5.57-7.69-56.03-11.53-111.52-24.61-170.48-38.95ZM89.26,598.48c55.7-33.3,111.5-65.8,169.23-97.32-24.48-12.49-48.19-24.15-71.23-36.6-7.66-4.14-11.27-3.83-16.55,2.33-24.21,28.28-47.34,57.09-69.29,86.53-10.51,14.1-8.89,29.73-12.17,45.07ZM1414.17,228.66c-53.77,12.36-104.23,25.6-154.76,41.3,25.32,26.21,51.75,50.52,81,74.29,22.72-39.37,46.68-76.86,73.76-115.58Zm-267.52,79.27c1.61.94,2.15,1.43,2.83,1.62,58.93,16.54,118.59,31.25,178.46,45.45,3.17.75,5.67,1.28,7.46-1.72,1.9-3.18,2.81-5.73-.99-8.81-26.95-21.87-52.09-45.02-75.65-69.25-2.61-2.69-4.9-3.79-9.39-2.36-34.26,10.85-68.27,22.12-102.72,35.07ZM97.84,547.45c24.42-29.1,47.66-58.38,72.97-86.56,2.47-2.75,1.2-4.15-1.73-5.72-14.9-8.01-29.73-16.1-46.06-24.96-8.56,39.86-16.87,78.55-25.18,117.24Zm-16.6,62.03c-11.7,7.7-23.67,11.84-29.36,20.16-9.31,13.61-16.26,28.25-24.21,42.45-1.37,2.45-2,4.25,2.6,5.13,10.58,2.03,21.04,4.48,31.55,6.75,3.94.85,6.21.21,6.86-3.57,3.89-22.79,8.05-45.55,12.57-70.92ZM669.36,146.37c-3.66-17.52-6.92-33.12-10.19-48.71-.74-3.5-3.21-2.6-5.61-1.26-14,7.82-27.98,15.67-43.22,24.23,20.23,8.83,38.6,16.84,59.02,25.75ZM41.67,637.11c-.55-.51-1.09-1.02-1.64-1.53-16.31,10.86-32.61,21.71-50.29,33.49,9.9,2,17.63,3.3,25.15,5.16,4.71,1.17,6.78-.04,8.55-3.42,5.91-11.29,12.13-22.47,18.24-33.7Zm42.76-59.6c-8.28,12.86-16.57,25.73-25.41,39.46,24.51-7.47,27.53-22.63,25.41-39.46Z"/>
</svg>